<svg width="25" height="24" viewBox="0 0 25 24" fill="none" xmlns="http://www.w3.org/2000/svg">
<path d="M12.4663 6.48949L13.9519 5.00392C15.6246 3.3312 17.8145 2.63737 20.1321 2.52399C21.0336 2.47989 21.4843 2.45784 21.8457 2.81928C22.2072 3.18071 22.1851 3.63143 22.141 4.53289C22.0276 6.8505 21.3338 9.04042 19.6611 10.7131L18.1755 12.1987C16.9521 13.4221 16.6043 13.77 16.8611 15.097C17.1146 16.1107 17.3599 17.0923 16.6228 17.8294C15.7287 18.7235 14.9131 18.7235 14.019 17.8294L6.83562 10.646C5.94153 9.75188 5.9415 8.9363 6.83562 8.04219C7.57271 7.30509 8.55433 7.55044 9.56801 7.80389C10.895 8.06073 11.2429 7.71289 12.4663 6.48949Z" stroke="white" stroke-width="2" stroke-linejoin="round"/>
<circle cx="17.5" cy="7" r="1" fill="white"/>
<path d="M3.16504 21.5L8.16504 16.5" stroke="white" stroke-width="2" stroke-linecap="round"/>
<path d="M9.16504 21.5L11.165 19.5" stroke="white" stroke-width="2" stroke-linecap="round"/>
<path d="M3.16504 15.5L5.16504 13.5" stroke="white" stroke-width="2" stroke-linecap="round"/>
</svg>
